

<?xml version="1.0" encoding="UTF-8"?>
<svg width="36px" height="23px" viewBox="0 0 36 23" version="1.1" xmlns="http://www.w3.org/2000/svg" xmlns:xlink="http://www.w3.org/1999/xlink">

    <g id="Page-1" stroke="none" stroke-width="1" fill="none" fill-rule="evenodd">
        <g id="bridge" fill="#8effe3" transform="translate(0.000000, -0.333333)" fill="#000000" fill-rule="nonzero">
            <path d="M9.81818182,14.969697 L9.81818182,8.50878788 C8.64,7.81878788 7.54363636,6.98242424 6.54545455,5.99969697 L6.54545455,14.969697 L9.81818182,14.969697 L9.81818182,14.969697 Z M6.54545455,23.3333333 L3.27272727,23.3333333 L3.27272727,19.1515152 L0,19.1515152 L0,14.969697 L3.27272727,14.969697 L3.27272727,0.333333333 L6.54545455,0.333333333 L6.54545455,3.32333333 C9.49090909,6.60606061 13.5327273,8.6969697 18,8.6969697 C22.4672727,8.6969697 26.5090909,6.60606061 29.4545455,3.32333333 L29.4545455,0.333333333 L32.7272727,0.333333333 L32.7272727,14.969697 L36,14.969697 L36,19.1515152 L32.7272727,19.1515152 L32.7272727,23.3333333 L29.4545455,23.3333333 L29.4545455,19.1515152 L6.54545455,19.1515152 L6.54545455,23.3333333 L6.54545455,23.3333333 Z M26.1818182,8.50878788 L26.1818182,14.969697 L29.4545455,14.969697 L29.4545455,5.99969697 C28.4563636,6.98242424 27.36,7.81878788 26.1818182,8.50878788 L26.1818182,8.50878788 Z M24.5454545,14.969697 L24.5454545,9.36606061 C23.4981818,9.8469697 22.4018182,10.2024242 21.2727273,10.4533333 L21.2727273,14.969697 L24.5454545,14.969697 L24.5454545,14.969697 Z M19.6363636,14.969697 L19.6363636,10.7042424 L18,10.7878788 L16.3636364,10.7042424 L16.3636364,14.969697 L19.6363636,14.969697 L19.6363636,14.969697 Z M14.7272727,14.969697 L14.7272727,10.4533333 C13.5981818,10.2024242 12.5018182,9.8469697 11.4545455,9.36606061 L11.4545455,14.969697 L14.7272727,14.969697 Z" id="Shape"></path>
        </g>
    </g>
</svg>