<svg xmlns="http://www.w3.org/2000/svg" xmlns:xlink="http://www.w3.org/1999/xlink" viewBox="0 0 32 40" version="1.1" x="0px" y="0px"><title>Code</title><desc>Created with Sketch.</desc><g stroke="none" stroke-width="1"  fill="#92FEE3" fill-rule="evenodd"><path d="M10.6585046,19.5074947 C11.0741412,19.8711767 11.1162587,20.5029393 10.7525767,20.918576 C10.3888946,21.3342126 9.75713202,21.3763301 9.34149539,21.012648 L4.34149539,16.637648 C3.8861682,16.2392368 3.8861682,15.5309059 4.34149539,15.1324947 L9.34149539,10.7574947 C9.75713202,10.3938126 10.3888946,10.4359301 10.7525767,10.8515667 C11.1162587,11.2672034 11.0741412,11.898966 10.6585046,12.262648 L6.51859226,15.8850714 L10.6585046,19.5074947 Z M22.3415091,19.5074947 L26.4814214,15.8850714 L22.3415091,12.262648 C21.9258725,11.898966 21.883755,11.2672034 22.247437,10.8515667 C22.6111191,10.4359301 23.2428817,10.3938126 23.6585183,10.7574947 L28.6585183,15.1324947 C29.1138455,15.5309059 29.1138455,16.2392368 28.6585183,16.637648 L23.6585183,21.012648 C23.2428817,21.3763301 22.6111191,21.3342126 22.247437,20.918576 C21.883755,20.5029393 21.9258725,19.8711767 22.3415091,19.5074947 Z M17.0337782,9.69021219 C17.1514349,9.24535266 17.6934149,8.94070553 18.2443244,9.00976377 C18.7952338,9.07882202 19.1464545,9.49543469 19.0287978,9.94029422 L15.6202157,22.8281251 C15.502559,23.2729846 14.960579,23.5776318 14.4096695,23.5085735 C13.85876,23.4395153 13.5075393,23.0229026 13.6251961,22.5780431 L17.0337782,9.69021219 Z" fill="#000000" fill-rule="nonzero"/></g></svg>