

<?xml version="1.0" encoding="UTF-8"?>
<svg width="26px" height="26px" viewBox="0 0 26 26" version="1.1" xmlns="http://www.w3.org/2000/svg" xmlns:xlink="http://www.w3.org/1999/xlink">
    <!-- Generator: Sketch 54.1 (76490) - https://sketchapp.com -->
    <title>github</title>
    <desc>Created with Sketch.</desc>
    <g id="Page-1" stroke="none" stroke-width="1" fill="none" fill-rule="evenodd">
        <g id="github" fill="#92FEE3" fill-rule="nonzero">
            <path d="M24.2310524,6.64078788 C23.0697585,4.60466667 21.4945376,2.99266667 19.5049749,1.80442424 C17.5151162,0.616121212 15.3427836,0.0221212121 12.9864374,0.0221212121 C10.6303872,0.0221212121 8.45734396,0.61630303 6.46789977,1.80442424 C4.47815945,2.99260606 2.90299772,4.60466667 1.74170387,6.64078788 C0.580587699,8.67684848 0,10.9002424 0,13.3109091 C0,16.2066667 0.825603645,18.8106061 2.47722551,21.1233939 C4.1286697,23.4363636 6.26209112,25.0368485 8.87731207,25.9250303 C9.18173121,25.9828485 9.40708428,25.9421818 9.5536082,25.8040606 C9.70019134,25.6657576 9.77339408,25.4925455 9.77339408,25.2851515 C9.77339408,25.2505455 9.77049203,24.9392121 9.7648656,24.3507879 C9.7590615,23.7623636 9.75633713,23.2490303 9.75633713,22.8110303 L9.36740319,22.8798788 C9.11942597,22.9263636 8.80659681,22.9460606 8.42891572,22.9404848 C8.0514123,22.9350909 7.65951708,22.8946061 7.2537631,22.8193333 C6.84783144,22.7447273 6.47026879,22.571697 6.12077904,22.3006061 C5.77146697,22.0295152 5.52348975,21.6746667 5.37690661,21.2366061 L5.20781777,20.8384242 C5.09511162,20.5733333 4.91767198,20.2788485 4.67526196,19.9560606 C4.43285194,19.6329697 4.18771754,19.4139394 3.93974032,19.2986061 L3.82134852,19.2118788 C3.74246014,19.1542424 3.6692574,19.0847273 3.60156264,19.0040606 C3.53392711,18.9233939 3.48328929,18.8426667 3.44947153,18.7618182 C3.41559453,18.6809091 3.44366743,18.6145455 3.53398633,18.5624848 C3.62430524,18.5104242 3.78753075,18.4851515 4.02437358,18.4851515 L4.3624328,18.5368485 C4.58790433,18.5830909 4.86679727,18.7212121 5.19946697,18.9520606 C5.531959,19.1827273 5.80528474,19.4826061 6.01950342,19.8515758 C6.27891116,20.3246667 6.59144419,20.6851515 6.95799089,20.9332121 C7.32424146,21.1812727 7.69351253,21.3050909 8.06544875,21.3050909 C8.43738497,21.3050909 8.75862415,21.2762424 9.02928474,21.2188485 C9.2996492,21.1611515 9.55331207,21.0744242 9.7901549,20.9591515 C9.8916082,20.1859394 10.167836,19.5919394 10.6186014,19.1767273 C9.97612301,19.1076364 9.39849658,19.0035758 8.88542597,18.8652121 C8.37265148,18.7266667 7.84276082,18.5018182 7.29610934,18.1900606 C6.74916173,17.8787273 6.29543508,17.4921212 5.93481093,17.0309091 C5.57412756,16.5694545 5.27811845,15.9636364 5.04719818,15.214 C4.81615945,14.4640606 4.70061048,13.5989697 4.70061048,12.6184848 C4.70061048,11.2224242 5.14598633,10.0344242 6.03656036,9.05381818 C5.61937585,8.00424242 5.65876082,6.82763636 6.15483371,5.52412121 C6.48175854,5.42018182 6.96657859,5.49818182 7.60905695,5.75763636 C8.25165376,6.01721212 8.72214123,6.23957576 9.02099317,6.42393939 C9.3198451,6.60824242 9.55929385,6.76442424 9.73969476,6.89109091 C10.7882825,6.59127273 11.8703918,6.44133333 12.9863189,6.44133333 C14.102246,6.44133333 15.1845923,6.59127273 16.2332392,6.89109091 L16.8757768,6.476 C17.3151708,6.1990303 17.8340456,5.94521212 18.4311572,5.71448485 C19.0286241,5.48387879 19.4854897,5.42036364 19.8012802,5.52430303 C20.308369,6.82787879 20.3535581,8.00442424 19.9362551,9.054 C20.8267699,10.0346061 21.2723235,11.2229091 21.2723235,12.6186667 C21.2723235,13.5991515 21.1563599,14.4669697 20.9256765,15.2226667 C20.694697,15.9784848 20.3961412,16.583697 20.0298907,17.0395758 C19.6632255,17.4953939 19.2065968,17.8789697 18.6599453,18.1902424 C18.1131754,18.5017576 17.5831071,18.7266061 17.0703326,18.8651515 C16.5573212,19.003697 15.9796948,19.1078182 15.3372164,19.1770303 C15.9231936,19.6959394 16.2162415,20.5150303 16.2162415,21.6339394 L16.2162415,25.2846667 C16.2162415,25.4920606 16.2867198,25.6652121 16.427795,25.8035758 C16.5686925,25.941697 16.7912027,25.9823636 17.0956219,25.9244848 C19.7111982,25.0364242 21.8446196,23.4358788 23.4960046,21.1229091 C25.1472118,18.8101212 25.9731116,16.2061818 25.9731116,13.3104242 C25.9725194,10.9000606 25.3916355,8.67684848 24.2310524,6.64078788 Z" id="Path"></path>
        </g>
    </g>
</svg>