<?xml version="1.0" encoding="UTF-8"?>
<svg width="23px" height="23px" viewBox="0 0 23 23" version="1.1" xmlns="http://www.w3.org/2000/svg" xmlns:xlink="http://www.w3.org/1999/xlink">

    <g id="Page-1" stroke="none" stroke-width="1" fill="none" fill-rule="evenodd">
        <g id="linkedin" fill="#92FEE3"fill-rule="nonzero">
            <path d="M7.18785093,19.0019531 L4.04331968,19.0019531 L4.04331968,8.84960938 L7.18785093,8.84960938 L7.18785093,19.0019531 Z M7.5016022,5.61505891 C7.5016022,4.59852602 6.6768646,3.7734375 5.66085815,3.7734375 C4.64099121,3.7734375 3.81835938,4.59852602 3.81835938,5.61505891 C3.81835938,6.63194273 4.64099121,7.45703125 5.66085815,7.45703125 C6.6768646,7.45703125 7.5016022,6.63194273 7.5016022,5.61505891 Z M18.9570313,13.4165497 C18.9570313,10.6912308 18.3812943,8.66992188 15.1976318,8.66992188 C13.6678314,8.66992188 12.6409455,9.43499756 12.2217331,10.2306061 L12.21875,10.2306061 L12.21875,8.84960938 L9.1640625,8.84960938 L9.1640625,19.0019531 L12.21875,19.0019531 L12.21875,13.9612274 C12.21875,12.6411209 12.5547867,11.3622513 14.1911011,11.3622513 C15.80513,11.3622513 15.8574219,12.8718719 15.8574219,14.045105 L15.8574219,19.0019531 L18.9570313,19.0019531 L18.9570313,13.4165497 Z M23,20.3046875 L23,2.6953125 C23,1.20903013 21.7909699,5.68434189e-14 20.3046875,5.68434189e-14 L2.6953125,5.68434189e-14 C1.20903013,5.68434189e-14 0,1.20903013 0,2.6953125 L0,20.3046875 C0,21.7909699 1.20903013,23 2.6953125,23 L20.3046875,23 C21.7909699,23 23,21.7909699 23,20.3046875 Z M20.3046875,1.796875 C20.8000565,1.796875 21.203125,2.19994353 21.203125,2.6953125 L21.203125,20.3046875 C21.203125,20.8000565 20.8000565,21.203125 20.3046875,21.203125 L2.6953125,21.203125 C2.19994353,21.203125 1.796875,20.8000565 1.796875,20.3046875 L1.796875,2.6953125 C1.796875,2.19994353 2.19994353,1.796875 2.6953125,1.796875 L20.3046875,1.796875 Z" id="Shape"></path>
        </g>
    </g>
</svg>